<svg xmlns="http://www.w3.org/2000/svg" baseProfile="basic" viewBox="0 0 48 48" style="transform: rotate(-15deg); filter: blur(1.5px);">
  <linearGradient id="a" x1="13.315" x2="38.005" y1="514.906" y2="481.377" gradientTransform="matrix(1 0 0 -1 0 514)" gradientUnits="userSpaceOnUse">
    <stop offset="0" stop-color="#41d1ff"/>
    <stop offset="1" stop-color="#9231be"/>
  </linearGradient>
  <path fill="url(#a)" d="M44.86 9.976 25.023 45.448a1.079 1.079 0 0 1-1.878.008L2.915 9.979c-.453-.794.226-1.756 1.126-1.595l19.859 3.55c.127.023.256.022.383-.001l19.443-3.544c.897-.164 1.579.791 1.134 1.587z"/>
  <linearGradient id="b" x1="25.502" x2="37.131" y1="508.764" y2="428.99" gradientTransform="matrix(1 0 0 -1 0 514)" gradientUnits="userSpaceOnUse">
    <stop offset="0" stop-color="#fed100"/>
    <stop offset="1" stop-color="#e36001"/>
  </linearGradient>
  <path fill="url(#b)" d="M33.574 3.01 19.019 5.862a.536.536 0 0 0-.431.493l-.895 15.121a.534.534 0 0 0 .654.552l4.052-.935a.535.535 0 0 1 .644.628l-1.204 5.895a.534.534 0 0 0 .679.618l2.503-.76a.535.535 0 0 1 .679.62l-1.913 9.26c-.12.579.651.895.972.398l.215-.332 11.86-23.669a.534.534 0 0 0-.579-.764l-4.171.805a.535.535 0 0 1-.615-.673l2.722-9.438a.534.534 0 0 0-.617-.671z"/>
</svg>